<svg width="60" height="60" viewBox="0 0 60 60" fill="none" xmlns="http://www.w3.org/2000/svg">
<path fill-rule="evenodd" clip-rule="evenodd" d="M37.5536 8.35911C38.8245 8.14141 40.2478 8.06872 41.5872 8.29532C43.9794 8.70003 46.189 9.81185 47.9356 11.4787C49.0774 11.5046 50.1994 11.2796 51.1923 10.959C52.0325 10.6876 52.7423 10.3599 53.2397 10.1008C53.487 9.97201 53.678 9.86211 53.8023 9.78771C53.8643 9.75057 53.9093 9.72246 53.9361 9.70548L53.9599 9.69033C54.7019 9.19601 55.6899 9.29222 56.3221 9.92098C56.9545 10.5499 57.0564 11.5372 56.5657 12.282C56.0464 13.0702 55.3256 14.4754 54.5179 16.0498C54.3909 16.2973 54.2618 16.549 54.1309 16.8032C53.6677 17.7031 53.1927 18.6127 52.75 19.393C52.472 19.883 52.1747 20.3804 51.8749 20.8102V21.4947C51.894 24.0088 51.6056 26.5097 51.0204 28.9428C50.6522 30.4736 50.1665 31.9776 49.5659 33.4411C48.0099 37.2327 45.7139 40.6763 42.8121 43.5707C39.9103 46.4651 36.4608 48.7522 32.6651 50.2986C28.8729 51.8435 24.811 52.618 20.7164 52.5769C14.7806 52.5821 8.96969 50.8719 3.98289 47.6521C3.24839 47.1779 2.93914 46.2589 3.23748 45.4371C3.53583 44.6153 4.36256 44.1087 5.23024 44.2161C5.98114 44.3091 6.73717 44.3544 7.4938 44.3519C10.2124 44.3443 12.8793 43.7436 15.3139 42.612C14.54 42.2598 13.8012 41.8254 13.1108 41.3134C11.0815 39.8087 9.57176 37.7088 8.79159 35.306C8.58886 34.6816 8.72745 33.9966 9.15699 33.5001C9.16468 33.4912 9.17245 33.4824 9.18029 33.4737C8.72147 33.0646 8.29215 32.6191 7.89691 32.1401C6.11861 29.9845 5.13942 27.281 5.12497 24.4866L5.12492 24.4769L5.12494 24.3519C5.12494 23.6873 5.47682 23.0723 6.04983 22.7355C6.19509 22.6501 6.34904 22.5858 6.50742 22.5427C5.66159 20.855 5.22173 18.9914 5.22494 17.1008C5.22394 14.9588 5.78343 12.8539 6.84784 10.9952C7.15512 10.4586 7.70719 10.108 8.32351 10.058C8.93983 10.0081 9.54115 10.2652 9.93081 10.7454C12.3372 13.7104 15.3404 16.136 18.7454 17.8647C20.4957 18.7533 22.3321 19.4476 24.2216 19.9387C25.2809 20.214 26.357 20.4255 27.4439 20.5715C27.396 18.7634 27.7531 16.9562 28.5024 15.2864C29.6016 12.8368 31.4828 10.8214 33.8508 9.55614C34.8537 9.02032 36.185 8.59354 37.5536 8.35911ZM9.35813 27.2278C9.68225 28.1401 10.1644 28.9959 10.7896 29.7536C12.0179 31.2425 13.7227 32.2614 15.6158 32.638C16.459 32.8057 17.0801 33.5254 17.1226 34.3841C17.1652 35.2428 16.6183 36.0204 15.7958 36.2707C15.1146 36.478 14.4167 36.6225 13.7108 36.7027C14.1772 37.304 14.7259 37.8426 15.3444 38.3012C16.7474 39.3415 18.4398 39.9187 20.186 39.9523C20.9783 39.9675 21.6755 40.4792 21.9276 41.2305C22.1796 41.9818 21.9322 42.8104 21.3094 43.3005C18.6865 45.3643 15.6535 46.8034 12.4396 47.5381C15.1033 48.3912 17.8969 48.8304 20.7227 48.8269L20.7444 48.8269C24.3446 48.8643 27.9161 48.1841 31.2503 46.8257C34.5846 45.4673 37.6147 43.4582 40.1638 40.9156C42.7129 38.3731 44.7298 35.3481 46.0967 32.0173C46.6243 30.7318 47.051 29.4106 47.3744 28.0658C47.889 25.9264 48.1423 23.7272 48.125 21.5166L48.1249 21.5019V20.1769C48.1249 19.7223 48.2901 19.2831 48.5898 18.9412C48.7629 18.7436 49.0659 18.2872 49.4884 17.5425C49.89 16.8346 50.3345 15.9849 50.7967 15.0869C50.8247 15.0326 50.8528 14.978 50.8809 14.9232C49.682 15.1836 48.323 15.32 46.8985 15.1661C46.4473 15.1173 46.0292 14.9066 45.7215 14.573C44.4644 13.2097 42.7902 12.3021 40.9617 11.9928C40.1504 11.8555 39.1695 11.8869 38.1867 12.0553C37.1189 12.2382 36.1897 12.5582 35.618 12.8637C33.9823 13.7376 32.683 15.1297 31.9237 16.8217C31.1645 18.5136 30.9883 20.4097 31.4228 22.2126C31.5613 22.7874 31.4206 23.3939 31.0431 23.8489C30.6657 24.304 30.0957 24.5544 29.5052 24.5245C27.3967 24.4179 25.3105 24.0963 23.2783 23.5681C21.1285 23.0094 19.0392 22.2195 17.0478 21.2085C14.1158 19.7199 11.4457 17.7772 9.1336 15.458C9.02813 15.997 8.97458 16.5471 8.97494 17.1007L8.97494 17.1055C8.97233 18.4823 9.3102 19.8384 9.95848 21.053C10.6068 22.2676 11.5453 23.3031 12.6906 24.0672C13.3856 24.531 13.69 25.3987 13.4368 26.195C13.1837 26.9913 12.4342 27.524 11.5989 27.5012C10.8425 27.4806 10.0923 27.3886 9.35813 27.2278Z" fill="#F27C1A"/>
</svg>
