<svg width="60" height="60" viewBox="0 0 60 60" fill="none" xmlns="http://www.w3.org/2000/svg">
<path d="M22.2149 17.9246C22.6723 17.9369 23.1794 17.9616 23.6618 19.0326C23.9818 19.7455 24.5207 21.058 24.9598 22.1272C25.3014 22.9592 25.5825 23.6438 25.6529 23.7839C25.8136 24.1039 25.9126 24.4731 25.7023 24.9039C25.6775 24.9547 25.6541 25.0033 25.6316 25.0501C25.4629 25.4001 25.3429 25.6491 25.0593 25.9748C24.9427 26.1087 24.8212 26.2555 24.7002 26.4017C24.4874 26.6589 24.2759 26.9145 24.0946 27.095C23.7731 27.4148 23.4391 27.7598 23.8101 28.3998C24.1813 29.0398 25.4798 31.1447 27.3967 32.8434C29.4575 34.6781 31.2495 35.4513 32.1554 35.8421C32.3313 35.918 32.4737 35.9795 32.5783 36.0315C33.2215 36.3515 33.6048 36.3022 33.9758 35.8715C34.347 35.4405 35.5835 34.0003 36.0165 33.3603C36.4369 32.7204 36.8697 32.8188 37.4635 33.0403C38.057 33.2619 41.2229 34.8128 41.8659 35.1328C41.993 35.1961 42.1119 35.2531 42.2221 35.3059C42.6696 35.5205 42.9737 35.6663 43.1027 35.8838C43.2634 36.1545 43.2634 37.4347 42.7317 38.9364C42.1876 40.4381 39.5657 41.8783 38.3785 41.9891C38.2661 41.9996 38.1542 42.0132 38.0391 42.0271C36.9511 42.1587 35.5699 42.3258 30.6491 40.3889C24.5856 38.0044 20.5831 32.0885 19.7738 30.8924C19.7099 30.798 19.666 30.733 19.6424 30.7015L19.6287 30.6831C19.2606 30.1905 17.0082 27.1767 17.0082 24.0671C17.0082 21.0921 18.4738 19.5432 19.1422 18.8367C19.1846 18.7919 19.2238 18.7505 19.2591 18.7124C19.8527 18.0724 20.5454 17.9124 20.9781 17.9124C21.4111 17.9124 21.8439 17.9124 22.2149 17.9246Z" fill="#FF7D00"/>
<path fill-rule="evenodd" clip-rule="evenodd" d="M5.46045 53.3286C5.25591 54.071 5.93213 54.7563 6.67725 54.5617L18.1956 51.5532C21.8315 53.5226 25.925 54.5688 30.0928 54.5688H30.1052C43.8201 54.5688 55 43.4537 55 29.7906C55 23.1684 52.4151 16.9398 47.7157 12.2623C43.0164 7.58491 36.7709 5 30.1049 5C16.3902 5 5.21027 16.1151 5.21027 29.7784C5.20871 34.125 6.356 38.3955 8.53698 42.1612L5.46045 53.3286ZM12.1523 43.1572C12.4193 42.1879 12.2859 41.1519 11.782 40.2818C9.93164 37.0869 8.95895 33.4637 8.96027 29.7784C8.96027 18.204 18.4434 8.75 30.1049 8.75C35.7797 8.75 41.0739 10.9425 45.0703 14.9201C49.0621 18.8934 51.25 24.1653 51.25 29.7906C51.25 41.3648 41.7669 50.8188 30.1052 50.8188H30.0928C26.5515 50.8188 23.0716 49.9295 19.9817 48.2558C19.1453 47.8028 18.1681 47.6845 17.2479 47.9249L10.3419 49.7287L12.1523 43.1572Z" fill="#FF7D00"/>
</svg>
