<svg width="43" height="43" viewBox="0 0 43 43" fill="none" xmlns="http://www.w3.org/2000/svg">
<path fill-rule="evenodd" clip-rule="evenodd" d="M12.9896 17.9168C12.9896 13.2167 16.7999 9.40641 21.5 9.40641C26.2002 9.40641 30.0104 13.2167 30.0104 17.9168C30.0104 22.617 26.2002 26.4272 21.5 26.4272C16.7999 26.4272 12.9896 22.617 12.9896 17.9168ZM21.5 12.0939C18.2841 12.0939 15.6771 14.7009 15.6771 17.9168C15.6771 21.1327 18.2841 23.7397 21.5 23.7397C24.7159 23.7397 27.3229 21.1327 27.3229 17.9168C27.3229 14.7009 24.7159 12.0939 21.5 12.0939Z" fill="#DD7A1F"/>
<path fill-rule="evenodd" clip-rule="evenodd" d="M6.31451 15.8687C6.94934 8.16701 13.3853 2.23975 21.1131 2.23975H21.887C29.6148 2.23975 36.0507 8.16701 36.6855 15.8687C37.0266 20.0059 35.7486 24.114 33.1208 27.3277L24.5333 37.8301C22.9656 39.7473 20.0345 39.7473 18.4668 37.8301L9.87921 27.3277C7.25145 24.114 5.97348 20.0059 6.31451 15.8687ZM21.1131 4.92725C14.7839 4.92725 9.51286 9.78173 8.99292 16.0895C8.7091 19.5328 9.77271 22.9518 11.9597 25.6265L20.5473 36.1289C21.0397 36.7311 21.9603 36.7311 22.4528 36.1289L31.0403 25.6265C33.2273 22.9518 34.291 19.5328 34.0071 16.0895C33.4872 9.78173 28.2161 4.92725 21.887 4.92725H21.1131Z" fill="#DD7A1F"/>
</svg>
