<svg width="51" height="51" viewBox="0 0 51 51" fill="none" xmlns="http://www.w3.org/2000/svg">
<path d="M17 20.1871C15.533 20.1871 14.3438 21.3764 14.3438 22.8434C14.3438 24.3104 15.533 25.4996 17 25.4996C18.467 25.4996 19.6562 24.3104 19.6562 22.8434C19.6562 21.3764 18.467 20.1871 17 20.1871Z" fill="#F27C1A"/>
<path d="M25.5 20.1871C24.033 20.1871 22.8438 21.3764 22.8438 22.8434C22.8438 24.3104 24.033 25.4996 25.5 25.4996C26.967 25.4996 28.1562 24.3104 28.1562 22.8434C28.1562 21.3764 26.967 20.1871 25.5 20.1871Z" fill="#F27C1A"/>
<path d="M31.3438 22.8434C31.3438 21.3764 32.533 20.1871 34 20.1871C35.467 20.1871 36.6562 21.3764 36.6562 22.8434C36.6562 24.3104 35.467 25.4996 34 25.4996C32.533 25.4996 31.3438 24.3104 31.3438 22.8434Z" fill="#F27C1A"/>
<path fill-rule="evenodd" clip-rule="evenodd" d="M34.214 9.7593C28.4889 9.27106 22.7338 9.24273 17.0041 9.67457L16.5935 9.70552C11.1295 10.1173 6.90625 14.6709 6.90625 20.1504V38.2496C6.90625 38.8104 7.20091 39.3298 7.68219 39.6176C8.16347 39.9053 8.76054 39.9189 9.25446 39.6535L17.5649 35.1874C17.9515 34.9796 18.3835 34.8709 18.8223 34.8709H37.8972C40.3029 34.8709 42.3645 33.1509 42.7958 30.7842C43.6697 25.9876 43.7388 21.0789 43 16.2596L42.7823 14.8394C42.386 12.2538 40.2708 10.2758 37.6645 10.0536L34.214 9.7593ZM17.2437 12.8531C22.8034 12.434 28.3878 12.4615 33.9432 12.9353L37.3936 13.2295C38.5334 13.3267 39.4583 14.1917 39.6316 15.3223L39.8493 16.7425C40.5344 21.212 40.4704 25.7644 39.6599 30.2128C39.5047 31.0645 38.7628 31.6834 37.8972 31.6834H18.8223C17.8568 31.6834 16.9064 31.9226 16.056 32.3796L10.0938 35.5838V20.1504C10.0938 16.3383 13.0318 13.1705 16.8331 12.884L17.2437 12.8531Z" fill="#F27C1A"/>
</svg>
