<svg width="60" height="60" viewBox="0 0 60 60" fill="none" xmlns="http://www.w3.org/2000/svg">
<path fill-rule="evenodd" clip-rule="evenodd" d="M26.2192 9.46922C28.6806 7.00781 32.019 5.625 35.5 5.625H42.25C43.2855 5.625 44.125 6.46447 44.125 7.5V16.5C44.125 17.5355 43.2855 18.375 42.25 18.375H35.5C35.4005 18.375 35.3052 18.4145 35.2348 18.4848C35.1645 18.5552 35.125 18.6505 35.125 18.75V23.625H42.25C42.8274 23.625 43.3726 23.891 43.7279 24.3461C44.0832 24.8012 44.2091 25.3946 44.069 25.9548L41.819 34.9548C41.6103 35.7894 40.8604 36.375 40 36.375H35.125V52.5C35.125 53.5355 34.2855 54.375 33.25 54.375H24.25C23.2145 54.375 22.375 53.5355 22.375 52.5V36.375H17.5C16.4645 36.375 15.625 35.5355 15.625 34.5V25.5C15.625 24.4645 16.4645 23.625 17.5 23.625H22.375V18.75C22.375 15.269 23.7578 11.9306 26.2192 9.46922ZM35.5 9.375C33.0136 9.375 30.629 10.3627 28.8709 12.1209C27.1127 13.879 26.125 16.2636 26.125 18.75V25.5C26.125 26.5355 25.2855 27.375 24.25 27.375H19.375V32.625H24.25C25.2855 32.625 26.125 33.4645 26.125 34.5V50.625H31.375V34.5C31.375 33.4645 32.2145 32.625 33.25 32.625H38.536L39.8485 27.375H33.25C32.2145 27.375 31.375 26.5355 31.375 25.5V18.75C31.375 17.656 31.8096 16.6068 32.5832 15.8332C33.3568 15.0596 34.406 14.625 35.5 14.625H40.375V9.375H35.5Z" fill="#FF7D00"/>
</svg>
