<svg width="60" height="60" viewBox="0 0 60 60" fill="none" xmlns="http://www.w3.org/2000/svg">
<path d="M40 17.5004C40 16.1196 41.1193 15.0004 42.5 15.0004C43.8807 15.0004 45 16.1196 45 17.5004C45 18.8811 43.8807 20.0004 42.5 20.0004C41.1193 20.0004 40 18.8811 40 17.5004Z" fill="#FF7D00"/>
<path fill-rule="evenodd" clip-rule="evenodd" d="M30 18.1254C23.4416 18.1254 18.125 23.442 18.125 30.0004C18.125 36.5587 23.4416 41.8754 30 41.8754C36.5583 41.8754 41.875 36.5587 41.875 30.0004C41.875 23.442 36.5583 18.1254 30 18.1254ZM21.875 30.0004C21.875 25.513 25.5127 21.8754 30 21.8754C34.4873 21.8754 38.125 25.513 38.125 30.0004C38.125 34.4877 34.4873 38.1254 30 38.1254C25.5127 38.1254 21.875 34.4877 21.875 30.0004Z" fill="#FF7D00"/>
<path fill-rule="evenodd" clip-rule="evenodd" d="M43.1456 7.0829C34.4792 6.11429 25.5208 6.11429 16.8544 7.0829C11.8243 7.64509 7.76342 11.6076 7.17203 16.6639C6.13569 25.5247 6.13569 34.476 7.17203 43.3368C7.76342 48.3931 11.8243 52.3556 16.8544 52.9178C25.5208 53.8864 34.4792 53.8864 43.1456 52.9178C48.1757 52.3556 52.2366 48.3931 52.828 43.3368C53.8643 34.476 53.8643 25.5247 52.828 16.6639C52.2366 11.6076 48.1757 7.64509 43.1456 7.0829ZM17.2709 10.8097C25.6605 9.87203 34.3395 9.87203 42.7291 10.8097C46.0544 11.1813 48.7181 13.8054 49.1034 17.0996C50.1058 25.6709 50.1058 34.3298 49.1034 42.9011C48.7181 46.1953 46.0543 48.8194 42.7291 49.191C34.3395 50.1287 25.6605 50.1287 17.2709 49.191C13.9457 48.8194 11.2819 46.1953 10.8966 42.9011C9.89415 34.3298 9.89415 25.6709 10.8966 17.0996C11.2819 13.8054 13.9456 11.1813 17.2709 10.8097Z" fill="#FF7D00"/>
</svg>
