<svg width="49" height="49" viewBox="0 0 49 49" fill="none" xmlns="http://www.w3.org/2000/svg">
<path fill-rule="evenodd" clip-rule="evenodd" d="M11.9239 20.1232C15.573 28.0691 22.0665 34.3864 30.1388 37.8094L30.1643 37.8202L31.7237 38.5153C33.7095 39.4001 36.0436 38.7717 37.3168 37.0096L39.9186 33.4086C40.0776 33.1886 40.0366 32.8828 39.8254 32.7124L35.2832 29.048C35.0574 28.8659 34.7254 28.9083 34.5527 29.1414L32.7848 31.5268C32.3555 32.1062 31.5802 32.3075 30.9233 32.0102C24.8873 29.2786 20.0369 24.4281 17.3053 18.3922C17.008 17.7352 17.2093 16.9599 17.7886 16.5306L20.174 14.7628C20.4071 14.59 20.4495 14.258 20.2674 14.0322L16.6025 9.48941C16.4322 9.27827 16.1264 9.23726 15.9065 9.39605L12.286 12.0097C10.5122 13.2902 9.88758 15.6439 10.793 17.6355L11.9227 20.1205C11.9231 20.1214 11.9235 20.1223 11.9239 20.1232ZM28.9303 40.6234C20.1593 36.9003 13.1046 30.0341 9.13955 21.3984L9.13717 21.3932L8.00506 18.9029C6.49606 15.5837 7.53717 11.6608 10.4935 9.52663L14.1139 6.91298C15.6536 5.80148 17.7937 6.08855 18.9861 7.5665L22.6509 12.1093C23.9261 13.6899 23.6291 16.0141 21.9975 17.2233L20.6306 18.2363C22.9395 22.7165 26.5989 26.3759 31.0792 28.6849L32.0922 27.318C33.3013 25.6863 35.6256 25.3893 37.2061 26.6645L41.7483 30.3288C43.2267 31.5215 43.5134 33.6625 42.401 35.2022L39.7991 38.8031C37.6771 41.74 33.787 42.7873 30.4774 41.3127L28.9303 40.6234Z" fill="#DD7A1F"/>
</svg>
